<svg width="40" height="48" viewBox="0 0 40 48" fill="none" xmlns="http://www.w3.org/2000/svg">
<path d="M34.3997 4.64605H21.1157L22.2557 3.44605C22.5104 3.15956 22.6457 2.78644 22.634 2.40331C22.6222 2.02016 22.4642 1.65608 22.1923 1.3858C21.9205 1.11552 21.5555 0.95956 21.1724 0.949936C20.7892 0.940312 20.4169 1.07776 20.1317 1.33405L16.5317 4.93405C16.3921 5.07338 16.2812 5.23891 16.2056 5.42114C16.13 5.60338 16.091 5.79875 16.091 5.99605C16.091 6.19336 16.13 6.38872 16.2056 6.57095C16.2812 6.75319 16.3921 6.91871 16.5317 7.05805L20.1317 10.658C20.2715 10.7991 20.4379 10.9109 20.6213 10.9871C20.8046 11.0633 21.0013 11.1024 21.1997 11.102C21.3967 11.1035 21.5918 11.0649 21.7735 10.9886C21.955 10.9123 22.1191 10.7998 22.2557 10.658C22.3951 10.5197 22.5056 10.3552 22.5811 10.174C22.6565 9.99275 22.6954 9.79837 22.6954 9.60205C22.6954 9.40573 22.6565 9.21136 22.5811 9.03011C22.5056 8.84888 22.3951 8.68436 22.2557 8.54605L21.3077 7.59805H34.3997C34.9558 7.6012 35.4881 7.82347 35.8813 8.2166C36.2744 8.60975 36.4966 9.14207 36.4997 9.69805V38.4501C36.4966 39.0061 36.2744 39.5383 35.8813 39.9314C35.4881 40.3246 34.9558 40.5469 34.3997 40.55H28.3997C28.0019 40.55 27.6205 40.7081 27.3391 40.9894C27.0578 41.2706 26.8997 41.6522 26.8997 42.05C26.8997 42.4478 27.0578 42.8294 27.3391 43.1107C27.6205 43.3919 28.0019 43.55 28.3997 43.55H34.3997C35.7514 43.5469 37.0468 43.0085 38.0026 42.0527C38.9582 41.0971 39.4966 39.8017 39.4997 38.4501V9.74605C39.4966 8.39441 38.9582 7.09906 38.0026 6.1433C37.0468 5.18756 35.7514 4.64921 34.3997 4.64605Z" fill="#1D1C1D"/>
<path d="M19.832 37.3941C19.547 37.1377 19.1745 37.0003 18.7914 37.0099C18.4082 37.0195 18.0432 37.1755 17.7715 37.4458C17.4996 37.7161 17.3415 38.0802 17.3298 38.4633C17.318 38.8464 17.4533 39.2196 17.708 39.5061L18.752 40.5501H5.6C5.04401 40.5469 4.5117 40.3246 4.11856 39.9315C3.7254 39.5383 3.50315 39.006 3.5 38.4501V9.74601C3.50315 9.19002 3.7254 8.6577 4.11856 8.26457C4.5117 7.87142 5.04401 7.64916 5.6 7.64601H11.6C11.9978 7.64601 12.3794 7.48797 12.6606 7.20666C12.9419 6.92537 13.1 6.54383 13.1 6.146C13.1 5.74818 12.9419 5.36664 12.6606 5.08535C12.3794 4.80404 11.9978 4.646 11.6 4.646H5.6C4.24836 4.64918 2.95301 5.18751 1.99725 6.14327C1.0415 7.09901 0.503165 8.39438 0.5 9.74601V38.4501C0.503165 39.8017 1.0415 41.097 1.99725 42.0528C2.95301 43.0086 4.24836 43.5469 5.6 43.5501H18.8L17.756 44.5941C17.5487 44.803 17.4075 45.0684 17.3501 45.357C17.2925 45.6457 17.3213 45.9448 17.4324 46.2174C17.5437 46.4898 17.7327 46.7236 17.9759 46.8894C18.219 47.0553 18.5057 47.1459 18.8 47.1501C18.9969 47.1514 19.1921 47.1129 19.3736 47.0365C19.5552 46.9602 19.7193 46.8478 19.856 46.7061L23.456 43.1061C23.5956 42.9667 23.7065 42.8011 23.7821 42.6189C23.8577 42.4366 23.8967 42.2413 23.8967 42.0441C23.8967 41.8467 23.8577 41.6514 23.7821 41.4691C23.7065 41.2869 23.5956 41.1214 23.456 40.9821L19.832 37.3941Z" fill="#1D1C1D"/>
<path d="M18.2841 14.0779C17.9099 14.029 17.5311 14.1265 17.2271 14.3501C16.923 14.5736 16.7169 14.906 16.6521 15.2779L16.2561 18.0499H12.7281C12.3462 18.0499 11.9799 18.2015 11.7099 18.4717C11.4398 18.7417 11.2881 19.108 11.2881 19.4899C11.2881 19.8718 11.4398 20.2381 11.7099 20.5081C11.9799 20.7781 12.3462 20.9299 12.7281 20.9299H15.8361L15.0801 26.0419H11.6001C11.4008 26.0236 11.1998 26.0471 11.01 26.1109C10.8203 26.1746 10.646 26.2772 10.4981 26.4122C10.3503 26.5471 10.2321 26.7115 10.1513 26.8946C10.0705 27.0778 10.0288 27.2756 10.0288 27.4759C10.0288 27.676 10.0705 27.874 10.1513 28.0571C10.2321 28.2403 10.3503 28.4045 10.4981 28.5395C10.646 28.6744 10.8203 28.7771 11.01 28.8409C11.1998 28.9046 11.4008 28.9282 11.6001 28.9099H14.6241L14.1561 32.4499C14.1041 32.8246 14.2004 33.2048 14.4245 33.5096C14.6486 33.8144 14.9829 34.0198 15.3561 34.0819H15.5721C15.9117 34.081 16.2401 33.9601 16.4993 33.7405C16.7583 33.5209 16.9314 33.2167 16.9881 32.8819L17.6001 28.9099H21.3921L20.8401 32.4499C20.7881 32.8246 20.8844 33.2048 21.1085 33.5096C21.3326 33.8144 21.6669 34.0198 22.0401 34.0819H22.2561C22.5957 34.081 22.9241 33.9601 23.1833 33.7405C23.4423 33.5209 23.6154 33.2167 23.6721 32.8819L24.2481 28.9819H27.2601C27.6177 28.9492 27.9503 28.7839 28.1924 28.5185C28.4346 28.2532 28.5687 27.907 28.5687 27.5479C28.5687 27.1886 28.4346 26.8424 28.1924 26.5772C27.9503 26.3119 27.6177 26.1466 27.2601 26.1139H24.6801L25.4241 21.0019H28.4001C28.7916 21.0019 29.1669 20.8463 29.4438 20.5696C29.7206 20.2927 29.8762 19.9174 29.8762 19.5259C29.8762 19.1344 29.7206 18.7589 29.4438 18.4822C29.1669 18.2054 28.7916 18.0499 28.4001 18.0499H25.8801L26.2281 15.7099C26.2802 15.3352 26.1839 14.9549 25.9598 14.6501C25.7355 14.3452 25.4013 14.14 25.0281 14.0779C24.6548 14.0261 24.276 14.1227 23.973 14.3471C23.6702 14.5715 23.4674 14.9056 23.4081 15.2779L22.9401 18.0499H19.1601L19.4961 15.7099C19.551 15.3328 19.4544 14.9494 19.2272 14.6435C19.0001 14.3376 18.6609 14.1342 18.2841 14.0779ZM22.5201 20.9299L21.7761 26.0419H17.9841L18.8001 20.9299H22.5201Z" fill="#1D1C1D"/>
</svg>
