<svg xmlns="http://www.w3.org/2000/svg" width="48" height="49" viewBox="0 0 48 49" fill="none">
<path d="M16.3802 47.15C15.9185 47.1479 15.4643 47.0314 15.0584 46.8109C14.6526 46.5905 14.3077 46.273 14.0545 45.8867C13.8013 45.5004 13.6478 45.0574 13.6076 44.5974C13.5674 44.1373 13.6419 43.6744 13.8242 43.25L20.1362 28.85H13.2002C12.5133 28.8542 11.8364 28.6846 11.2328 28.3565C10.6291 28.0285 10.1184 27.553 9.74819 26.9743C9.37797 26.3957 9.16034 25.7326 9.11558 25.0471C9.07082 24.3616 9.2004 23.6759 9.49223 23.0541L18.6242 3.32602C18.9492 2.61407 19.4709 2.00987 20.1278 1.58465C20.7848 1.15942 21.5496 0.9309 22.3322 0.926025H31.9322C32.4036 0.926934 32.8671 1.04701 33.2796 1.27509C33.6923 1.50317 34.0404 1.83185 34.2918 2.23058C34.5434 2.62931 34.6899 3.08513 34.718 3.5557C34.7459 4.02625 34.6545 4.49626 34.4522 4.92202L28.0802 18.2421H36.0002C36.8049 18.2392 37.5924 18.4744 38.2638 18.9179C38.9352 19.3616 39.4604 19.9939 39.7734 20.7352C40.0863 21.4766 40.173 22.2938 40.0227 23.0845C39.8723 23.875 39.4916 24.6034 38.9282 25.1781L18.3842 46.298C18.1242 46.5668 17.8128 46.7808 17.4686 46.9271C17.1243 47.0735 16.7543 47.1493 16.3802 47.15ZM22.4042 25.874C22.6542 25.8754 22.8759 25.9025 23.0954 26.0221C23.315 26.1416 23.5014 26.3137 23.6382 26.5229C23.7749 26.7322 23.8575 26.972 23.8788 27.2211C23.9003 27.4702 23.8595 27.7205 23.7602 27.9501L17.0282 43.382L36.7443 23.09C36.9003 22.9373 37.0059 22.7404 37.0467 22.5259C37.0875 22.3112 37.0616 22.0894 36.9722 21.89C36.8901 21.6913 36.75 21.5221 36.5702 21.4044C36.3903 21.2866 36.1791 21.2258 35.9642 21.23H25.7042C25.4508 21.2299 25.2017 21.166 24.9794 21.0445C24.7571 20.9228 24.569 20.7473 24.4322 20.534C24.3014 20.317 24.2253 20.0714 24.2106 19.8184C24.1961 19.5653 24.2433 19.3126 24.3483 19.082L31.5483 3.93802H22.3322C22.1244 3.93812 21.921 3.99818 21.7466 4.111C21.572 4.2238 21.4337 4.38458 21.3482 4.57402L12.2402 24.338C12.1642 24.5011 12.1302 24.6806 12.1412 24.8603C12.1522 25.0399 12.2079 25.2141 12.3033 25.3666C12.3987 25.5191 12.5307 25.6456 12.6873 25.7342C12.844 25.8228 13.0203 25.8709 13.2002 25.874H22.4042Z" fill="#1D1C1D"/>
</svg>