<svg xmlns="http://www.w3.org/2000/svg" width="48" height="49" viewBox="0 0 48 49" fill="none">
  <path d="M39.6959 7.2499C37.8926 5.17657 35.6652 3.51443 33.1644 2.37583C30.6636 1.23721 27.9476 0.64865 25.1999 0.649904C24.3531 0.6521 23.5074 0.708214 22.6679 0.817904C19.4055 1.23616 16.3052 2.48548 13.6644 4.44608C11.0236 6.40667 8.93065 9.01282 7.58635 12.0146C6.24205 15.0164 5.69142 18.3133 5.98725 21.589C6.28308 24.8647 7.41546 28.0094 9.27582 30.7219L3.51582 38.1259C2.84979 38.9789 2.43702 40.0022 2.32465 41.0786C2.21229 42.155 2.40484 43.2415 2.88034 44.2138C3.35583 45.1859 4.09512 46.005 5.01379 46.5772C5.93245 47.1494 6.99351 47.4518 8.07582 47.4499C8.95003 47.4511 9.81297 47.2528 10.599 46.8701C11.385 46.4875 12.0734 45.9307 12.6118 45.2419L18.3599 37.9219C21.4955 39.111 24.8858 39.4664 28.1999 38.9539C31.6122 38.4353 34.8216 37.0066 37.4906 34.8179C40.1594 32.6293 42.1889 29.7616 43.3655 26.5168C44.5421 23.272 44.8223 19.7699 44.1764 16.3793C43.5306 12.9888 41.9828 9.83503 39.6959 7.2499ZM41.3519 22.1059C40.8888 25.5841 39.3156 28.82 36.866 31.3324C34.4163 33.8446 31.2212 35.4992 27.7559 36.0499C26.918 36.1782 26.0715 36.2423 25.2239 36.2419C22.8605 36.2467 20.525 35.7304 18.3839 34.7299C18.203 34.6465 18.0069 34.6017 17.8079 34.5979C17.6163 34.5977 17.4273 34.6409 17.255 34.724C17.0825 34.8071 16.931 34.928 16.8119 35.0779L10.2598 43.4779C9.99082 43.792 9.65524 44.042 9.27745 44.2102C8.89968 44.3783 8.48919 44.4602 8.07582 44.4499C7.55686 44.4494 7.04847 44.3033 6.60846 44.0282C6.16846 43.753 5.81454 43.3598 5.58697 42.8935C5.35939 42.4271 5.26732 41.9062 5.32122 41.39C5.37511 40.8739 5.57281 40.3832 5.89182 39.9739L12.4558 31.5739C12.631 31.3471 12.726 31.0685 12.726 30.7819C12.726 30.4952 12.631 30.2167 12.4558 29.9899C10.8025 27.8782 9.69727 25.3903 9.23848 22.7479C8.77969 20.1055 8.98162 17.3908 9.82629 14.8453C10.671 12.2999 12.1321 10.0029 14.0796 8.15902C16.0271 6.31513 18.4005 4.98158 20.9882 4.2772C23.576 3.57281 26.2977 3.51946 28.9112 4.12187C31.5245 4.72429 33.9483 5.96378 35.9666 7.72993C37.9848 9.49607 39.5349 11.734 40.4787 14.2444C41.4225 16.7548 41.7306 19.4596 41.3759 22.1179L41.3519 22.1059Z" fill="#1D1C1D"/>
  <path d="M25.2 8.8219C22.4134 8.8273 19.7304 9.87836 17.6815 11.7672C15.6328 13.656 14.3675 16.2449 14.136 19.0219H12.336C12.2353 19.0204 12.1364 19.0492 12.0522 19.1044C11.968 19.1597 11.9022 19.2389 11.8635 19.3319C11.8247 19.4249 11.8147 19.5275 11.8348 19.6263C11.8549 19.7249 11.9041 19.8154 11.976 19.8859L15.168 23.0899C15.2644 23.1838 15.3936 23.2363 15.528 23.2363C15.6625 23.2363 15.7917 23.1838 15.888 23.0899L19.092 19.8859C19.164 19.8154 19.2132 19.7249 19.2333 19.6263C19.2534 19.5275 19.2433 19.4249 19.2046 19.3319C19.1658 19.2389 19.1001 19.1597 19.0159 19.1044C18.9316 19.0492 18.8328 19.0204 18.732 19.0219H17.088C17.3058 17.1356 18.18 15.3862 19.5579 14.0799C20.9358 12.7735 22.7292 11.9935 24.6243 11.8765C26.5194 11.7595 28.3953 12.313 29.9233 13.4399C31.4514 14.5669 32.5342 16.1956 32.9823 18.0406C33.4303 19.8857 33.2149 21.8296 32.3739 23.5318C31.5328 25.2341 30.1197 26.5862 28.3821 27.3514C26.6443 28.1165 24.6928 28.2458 22.8693 27.7169C21.0457 27.1879 19.4665 26.0342 18.408 24.4579C18.1861 24.1294 17.8432 23.902 17.4543 23.8255C17.0652 23.7491 16.6618 23.8297 16.332 24.0499C16.0027 24.274 15.775 24.619 15.6987 25.01C15.6223 25.4009 15.7033 25.8062 15.924 26.1379C16.9936 27.7273 18.456 29.0131 20.1691 29.8705C21.8823 30.7281 23.788 31.1279 25.7014 31.0316C27.6147 30.9353 29.4706 30.346 31.089 29.3209C32.7073 28.2958 34.0332 26.8696 34.9378 25.1809C35.8425 23.4922 36.2952 21.5983 36.252 19.683C36.2088 17.7677 35.671 15.8962 34.6911 14.25C33.7113 12.6038 32.3224 11.2389 30.6594 10.2878C28.9965 9.33676 27.1158 8.83177 25.2 8.8219Z" fill="#1D1C1D"/>
</svg>