<svg xmlns="http://www.w3.org/2000/svg" width="48" height="49" viewBox="0 0 48 49" fill="none">
  <path d="M34.8002 16.0699H21.1802C20.7824 16.0699 20.4008 16.228 20.1195 16.5092C19.8383 16.7906 19.6802 17.1721 19.6802 17.5699C19.6802 17.9677 19.8383 18.3493 20.1195 18.6305C20.4008 18.9119 20.7824 19.0699 21.1802 19.0699H34.8002C35.198 19.0699 35.5796 18.9119 35.8608 18.6305C36.1422 18.3493 36.3002 17.9677 36.3002 17.5699C36.3002 17.1721 36.1422 16.7906 35.8608 16.5092C35.5796 16.228 35.198 16.0699 34.8002 16.0699Z" fill="#1D1C1D"/>
  <path d="M34.8002 21.722H21.1802C20.7824 21.722 20.4008 21.8801 20.1195 22.1614C19.8383 22.4426 19.6802 22.8242 19.6802 23.222C19.6802 23.6198 19.8383 24.0014 20.1195 24.2827C20.4008 24.5639 20.7824 24.722 21.1802 24.722H34.8002C35.198 24.722 35.5796 24.5639 35.8608 24.2827C36.1422 24.0014 36.3002 23.6198 36.3002 23.222C36.3002 22.8242 36.1422 22.4426 35.8608 22.1614C35.5796 21.8801 35.198 21.722 34.8002 21.722Z" fill="#1D1C1D"/>
  <path d="M34.7999 27.6499H28.4399C28.042 27.6499 27.6605 27.808 27.3793 28.0893C27.0979 28.3705 26.9399 28.7521 26.9399 29.1499C26.9399 29.5477 27.0979 29.9293 27.3793 30.2106C27.6605 30.4918 28.042 30.6499 28.4399 30.6499H34.7999C35.1977 30.6499 35.5792 30.4918 35.8606 30.2106C36.1418 29.9293 36.2999 29.5477 36.2999 29.1499C36.2999 28.7521 36.1418 28.3705 35.8606 28.0893C35.5792 27.808 35.1977 27.6499 34.7999 27.6499Z" fill="#1D1C1D"/>
  <path d="M32.3996 0.950195H18.1556C16.9771 0.953372 15.8477 1.42382 15.0154 2.25839C14.1831 3.09296 13.7157 4.22353 13.7157 5.4022V28.5742L8.65166 30.1582C8.06003 30.3413 7.53386 30.6914 7.13637 31.1663C6.73889 31.6412 6.48699 32.2208 6.41096 32.8355C6.33492 33.4501 6.43797 34.0737 6.70773 34.6312C6.97749 35.1886 7.40249 35.6564 7.93166 35.9782L8.14766 36.1102L4.79966 39.0142C4.46789 39.304 4.19946 39.6592 4.01114 40.0574C3.82281 40.4557 3.71864 40.8884 3.70512 41.3288C3.69161 41.7691 3.76905 42.2076 3.9326 42.6166C4.09614 43.0257 4.34229 43.3966 4.65566 43.7062L7.45166 46.5142C7.76385 46.8237 8.13594 47.066 8.54513 47.2265C8.95431 47.3871 9.39198 47.4623 9.83129 47.4478C10.2706 47.4331 10.7023 47.329 11.0999 47.1416C11.4975 46.9543 11.8527 46.6876 12.1437 46.3582L15.0476 43.0462L15.1796 43.2622C15.5047 43.7869 15.9731 44.2073 16.5298 44.4739C17.0864 44.7404 17.7077 44.8418 18.3203 44.7661C18.9328 44.6903 19.5106 44.4406 19.9855 44.0464C20.4604 43.6522 20.8124 43.1302 20.9996 42.5422L22.3916 38.0782H37.9916C38.5774 38.083 39.1582 37.9721 39.7009 37.7519C40.2436 37.5319 40.7377 37.2068 41.1545 36.7955C41.5714 36.3841 41.903 35.8946 42.1304 35.3549C42.3578 34.8151 42.4765 34.2358 42.4796 33.6502V11.2462L32.3996 0.950195ZM33.2636 6.1222L37.4156 10.3582H33.2516L33.2636 6.1222ZM18.1676 41.6542C18.1544 41.6974 18.1271 41.7351 18.0902 41.761C18.0533 41.7871 18.0088 41.8001 17.9636 41.7982C17.9276 41.8007 17.8918 41.7931 17.8598 41.7761C17.828 41.759 17.8016 41.7336 17.7836 41.7022L15.6716 38.2462C15.6518 38.2166 15.6251 38.1923 15.5938 38.1755C15.5623 38.1589 15.5273 38.1502 15.4916 38.1502C15.4619 38.1493 15.4322 38.1553 15.4052 38.1677C15.3781 38.1802 15.3542 38.1989 15.3356 38.2222L9.92366 44.3782C9.90503 44.4014 9.88124 44.42 9.85416 44.4326C9.82709 44.4451 9.79746 44.4511 9.76766 44.4502C9.71331 44.4694 9.654 44.4694 9.59966 44.4502L6.80366 41.5822C6.764 41.5399 6.74193 41.4841 6.74193 41.4262C6.74193 41.3683 6.764 41.3125 6.80366 41.2702L12.9597 35.8702C12.9869 35.8501 13.0091 35.8238 13.0244 35.7937C13.0397 35.7634 13.0477 35.7301 13.0477 35.6962C13.0477 35.6623 13.0397 35.629 13.0244 35.5987C13.0091 35.5684 12.9869 35.5423 12.9597 35.5222L9.50366 33.4102C9.46412 33.396 9.42992 33.37 9.40574 33.3355C9.38157 33.3011 9.3686 33.2602 9.3686 33.2182C9.3686 33.1762 9.38157 33.1353 9.40574 33.1007C9.42992 33.0664 9.46412 33.0405 9.50366 33.0262L21.6596 29.2222H21.7196C21.7538 29.2199 21.7879 29.2264 21.8188 29.2406C21.8498 29.255 21.8767 29.2771 21.8971 29.3046C21.9173 29.332 21.9304 29.3641 21.935 29.398C21.9397 29.4317 21.9358 29.4662 21.9236 29.4982L18.1676 41.6542ZM38.0276 35.0782H23.3636L24.8396 30.3862C24.9904 29.9044 25.0255 29.3941 24.9424 28.8962C24.8591 28.3984 24.6599 27.9271 24.3608 27.5205C24.0617 27.1139 23.6711 26.7835 23.2207 26.5558C22.7702 26.3282 22.2724 26.2097 21.7676 26.2102C21.4423 26.21 21.1187 26.2586 20.8076 26.3542L16.7156 27.6502V5.4022C16.7156 5.01917 16.867 4.65166 17.1367 4.37969C17.4064 4.10773 17.7727 3.95336 18.1556 3.9502H30.2516V10.6702C30.2548 11.3842 30.5407 12.0679 31.0468 12.5716C31.5527 13.0754 32.2376 13.3582 32.9516 13.3582H39.4796V33.6502C39.4733 34.0311 39.3176 34.3943 39.046 34.6615C38.7743 34.9285 38.4086 35.0782 38.0276 35.0782Z" fill="#1D1C1D"/>
</svg>