<svg width="19" height="24" viewBox="0 0 19 24" fill="none" xmlns="http://www.w3.org/2000/svg">
<path d="M2.33334 23.6667C1.69167 23.6667 1.14217 23.438 0.684835 22.9807C0.227502 22.5233 -0.000775797 21.9742 1.98076e-06 21.3333V7.33334C1.98076e-06 6.69168 0.228668 6.14218 0.686002 5.68484C1.14333 5.22751 1.69245 4.99923 2.33334 5.00001H4.66667C4.66667 3.71668 5.12361 2.61807 6.0375 1.70418C6.95139 0.790288 8.05 0.333344 9.33333 0.333344C10.6167 0.333344 11.7153 0.790288 12.6292 1.70418C13.5431 2.61807 14 3.71668 14 5.00001H16.3333C16.975 5.00001 17.5245 5.22868 17.9818 5.68601C18.4392 6.14334 18.6674 6.69245 18.6667 7.33334V21.3333C18.6667 21.975 18.438 22.5245 17.9807 22.9818C17.5233 23.4392 16.9742 23.6675 16.3333 23.6667H2.33334ZM2.33334 21.3333H16.3333V7.33334H14V9.66668C14 9.99723 13.888 10.2745 13.664 10.4985C13.44 10.7225 13.1631 10.8341 12.8333 10.8333C12.5028 10.8333 12.2255 10.7213 12.0015 10.4973C11.7775 10.2733 11.6659 9.99645 11.6667 9.66668V7.33334H7V9.66668C7 9.99723 6.888 10.2745 6.664 10.4985C6.44 10.7225 6.16311 10.8341 5.83334 10.8333C5.50278 10.8333 5.2255 10.7213 5.0015 10.4973C4.7775 10.2733 4.66589 9.99645 4.66667 9.66668V7.33334H2.33334V21.3333ZM7 5.00001H11.6667C11.6667 4.35834 11.438 3.80884 10.9807 3.35151C10.5233 2.89418 9.97422 2.6659 9.33333 2.66668C8.69167 2.66668 8.14217 2.89534 7.68483 3.35268C7.2275 3.81001 6.99922 4.35912 7 5.00001Z" fill="white"/>
</svg>
